<?xml version="1.0" standalone="no"?>
<svg xmlns:xlink="http://www.w3.org/1999/xlink" id="wave" style="transform:rotate(180deg); transition: 0.3s" viewBox="0 0 1440 100" version="1.1" xmlns="http://www.w3.org/2000/svg"><defs><linearGradient id="sw-gradient-0" x1="0" x2="0" y1="1" y2="0"><stop stop-color="rgba(255, 249, 234, 1)" offset="0%"/><stop stop-color="rgba(255, 249, 234, 1)" offset="100%"/></linearGradient></defs><path style="transform:translate(0, 0px); opacity:1" fill="url(#sw-gradient-0)" d="M0,50L48,41.7C96,33,192,17,288,8.3C384,0,480,0,576,10C672,20,768,40,864,50C960,60,1056,60,1152,55C1248,50,1344,40,1440,33.3C1536,27,1632,23,1728,21.7C1824,20,1920,20,2016,21.7C2112,23,2208,27,2304,33.3C2400,40,2496,50,2592,46.7C2688,43,2784,27,2880,31.7C2976,37,3072,63,3168,65C3264,67,3360,43,3456,36.7C3552,30,3648,40,3744,48.3C3840,57,3936,63,4032,65C4128,67,4224,63,4320,58.3C4416,53,4512,47,4608,48.3C4704,50,4800,60,4896,58.3C4992,57,5088,43,5184,31.7C5280,20,5376,10,5472,13.3C5568,17,5664,33,5760,43.3C5856,53,5952,57,6048,53.3C6144,50,6240,40,6336,41.7C6432,43,6528,57,6624,55C6720,53,6816,37,6864,28.3L6912,20L6912,100L6864,100C6816,100,6720,100,6624,100C6528,100,6432,100,6336,100C6240,100,6144,100,6048,100C5952,100,5856,100,5760,100C5664,100,5568,100,5472,100C5376,100,5280,100,5184,100C5088,100,4992,100,4896,100C4800,100,4704,100,4608,100C4512,100,4416,100,4320,100C4224,100,4128,100,4032,100C3936,100,3840,100,3744,100C3648,100,3552,100,3456,100C3360,100,3264,100,3168,100C3072,100,2976,100,2880,100C2784,100,2688,100,2592,100C2496,100,2400,100,2304,100C2208,100,2112,100,2016,100C1920,100,1824,100,1728,100C1632,100,1536,100,1440,100C1344,100,1248,100,1152,100C1056,100,960,100,864,100C768,100,672,100,576,100C480,100,384,100,288,100C192,100,96,100,48,100L0,100Z"/></svg>